<svg xmlns="http://www.w3.org/2000/svg">
<symbol viewBox="0 0 22 22" id="icon-facebook">
<path fill="#000" d="M19.53 0H2.34A2.34 2.34 0 0 0 0 2.34v17.19a2.34 2.34 0 0 0 2.34 2.34h6.7v-7.43H5.97v-3.5h3.08V8.27c0-3.04 1.8-4.71 4.57-4.71 1.32 0 2.71.23 2.71.23v2.98H14.8c-1.5 0-1.97.94-1.97 1.9v2.27h3.36l-.54 3.5h-2.82v7.43h6.7a2.34 2.34 0 0 0 2.34-2.34V2.34A2.34 2.34 0 0 0 19.54 0Z"/>
</symbol>
<symbol viewBox="0 0 22 22" id="icon-instagram">
<path fill="#000" d="M10.95 5.33a5.6 5.6 0 0 0-5.61 5.61 5.6 5.6 0 0 0 5.6 5.61 5.6 5.6 0 0 0 5.62-5.6 5.6 5.6 0 0 0-5.61-5.62Zm0 9.26a3.65 3.65 0 0 1-3.65-3.65 3.65 3.65 0 0 1 3.65-3.65 3.65 3.65 0 0 1 3.64 3.65 3.65 3.65 0 0 1-3.64 3.65Zm7.14-9.49c0 .73-.58 1.3-1.3 1.3a1.3 1.3 0 1 1 1.3-1.3Zm3.72 1.33c-.08-1.75-.48-3.3-1.77-4.58C18.76.55 17.21.15 15.46.07c-1.8-.1-7.22-.1-9.03 0-1.75.08-3.3.48-4.59 1.76C.56 3.12.16 4.67.08 6.42c-.1 1.81-.1 7.23 0 9.03.08 1.76.48 3.3 1.76 4.59 1.29 1.28 2.84 1.68 4.59 1.77 1.8.1 7.22.1 9.03 0 1.75-.09 3.3-.49 4.58-1.77 1.28-1.28 1.68-2.83 1.77-4.59.1-1.8.1-7.21 0-9.02Zm-2.33 10.96a3.7 3.7 0 0 1-2.08 2.08c-1.44.57-4.86.44-6.45.44-1.6 0-5.02.13-6.45-.44a3.7 3.7 0 0 1-2.08-2.08c-.58-1.44-.44-4.86-.44-6.45 0-1.59-.13-5.01.44-6.45A3.7 3.7 0 0 1 4.5 2.41c1.44-.57 4.85-.44 6.45-.44 1.59 0 5.01-.12 6.45.44a3.7 3.7 0 0 1 2.08 2.08c.57 1.44.44 4.86.44 6.45 0 1.6.13 5.02-.44 6.45Z"/>
</symbol>
<symbol viewBox="0 0 25 22" id="icon-hear">
<path fill="#000" d="M22.57 1.5c-2.67-2.28-6.65-1.87-9.1.66l-.97 1-.96-1C9.09-.37 5.1-.79 2.43 1.5a7.01 7.01 0 0 0-.49 10.15l9.45 9.75c.61.63 1.6.63 2.21 0l9.45-9.75a7 7 0 0 0-.48-10.15Z"/>
</symbol>
<symbol viewBox="0 0 25 25" id="icon-round">
<path fill="#000" d="M0 12.11a12.11 12.11 0 1 0 24.22 0A12.11 12.11 0 0 0 0 12.1Zm12.11 8.98V3.13a8.98 8.98 0 0 1 8.98 8.98 8.98 8.98 0 0 1-8.98 8.98Z"/>
</symbol>
<symbol viewBox="0 0 19 19" id="icon-search">
<path fill="#000" d="M0 12.11a12.11 12.11 0 1 0 24.22 0A12.11 12.11 0 0 0 0 12.1Zm12.11 8.98V3.13a8.98 8.98 0 0 1 8.98 8.98 8.98 8.98 0 0 1-8.98 8.98Z"/>
</symbol>
</svg>
